<svg width="500" height="500" viewBox="0 0 500 500" fill="none" xmlns="http://www.w3.org/2000/svg">
<path d="M25 94C25 55.8923 55.8924 25 94 25H406C444.108 25 475 55.8924 475 94V406C475 444.108 444.108 475 406 475H94C55.8923 475 25 444.108 25 406V94Z" fill="url(#paint0_linear_123_2)"/>
<g filter="url(#filter0_f_123_2)">
<path d="M420.059 201.812C417.148 179.923 409.707 163.695 396.768 150.755C383.828 137.816 367.6 130.429 345.711 127.464C337.947 126.44 328.027 125.901 321.449 125.685L289.208 93.444C278.587 82.8228 264.515 77 249.527 77C234.539 77 220.413 82.8228 209.792 93.444L177.551 125.685C170.865 125.901 161.053 126.44 153.289 127.464C131.454 130.429 115.226 137.816 102.232 150.755C89.2925 163.695 81.8523 179.923 78.9409 201.812C77 216.423 77 233.568 77 253.463V294.06C77 313.901 77 331.1 78.9409 345.711C81.9062 367.6 89.2925 383.828 102.232 396.768C115.172 409.707 131.4 417.094 153.289 420.059C167.9 422 185.045 422 204.94 422H294.06C313.955 422 331.1 422 345.711 420.059C367.546 417.094 383.774 409.707 396.768 396.768C409.707 383.828 417.148 367.6 420.059 345.711C422 331.1 422 313.955 422 294.06V253.463C422 233.568 422 216.423 420.059 201.812ZM378.868 294.06C378.868 312.391 378.868 328.188 377.305 339.942C375.202 355.469 370.565 361.939 366.252 366.252C361.939 370.565 355.469 375.202 339.942 377.305C328.188 378.868 312.338 378.868 294.007 378.868H204.886C186.555 378.868 170.704 378.868 159.004 377.305C143.477 375.202 137.007 370.512 132.694 366.252C128.381 361.993 123.744 355.469 121.641 339.942C120.078 328.188 120.078 312.338 120.078 294.06V253.463C120.078 235.132 120.078 219.335 121.641 207.527C123.744 192 128.381 185.53 132.694 181.217C137.007 176.904 143.477 172.267 159.004 170.165C165.959 169.248 176.85 168.763 184.775 168.601C194.264 168.601 200.087 164.072 205.047 159.112L240.254 123.852C242.734 121.372 245.915 120.024 249.473 120.024C253.031 120.024 256.158 121.318 258.692 123.852L293.953 159.112C298.859 164.018 304.736 168.601 314.225 168.601C322.096 168.763 333.041 169.248 339.942 170.165C355.469 172.267 361.939 176.958 366.252 181.217C370.565 185.53 375.202 192 377.305 207.527C378.868 219.281 378.868 235.132 378.868 253.463V294.06Z" fill="url(#paint1_linear_123_2)"/>
<path d="M314.171 292.605H271.039C259.124 292.605 249.473 302.255 249.473 314.171C249.473 326.086 259.124 335.736 271.039 335.736H314.171C326.086 335.736 335.737 326.086 335.737 314.171C335.737 302.255 326.086 292.605 314.171 292.605Z" fill="url(#paint2_linear_123_2)"/>
<path d="M314.171 211.733H271.039C259.124 211.733 249.473 221.384 249.473 233.299C249.473 245.214 259.124 254.865 271.039 254.865H314.171C326.086 254.865 335.737 245.214 335.737 233.299C335.737 221.384 326.086 211.733 314.171 211.733Z" fill="url(#paint3_linear_123_2)"/>
<path d="M184.775 335.736C196.685 335.736 206.341 326.081 206.341 314.171C206.341 302.26 196.685 292.605 184.775 292.605C172.864 292.605 163.209 302.26 163.209 314.171C163.209 326.081 172.864 335.736 184.775 335.736Z" fill="url(#paint4_linear_123_2)"/>
<path d="M184.775 254.865C196.685 254.865 206.341 245.209 206.341 233.299C206.341 221.388 196.685 211.733 184.775 211.733C172.864 211.733 163.209 221.388 163.209 233.299C163.209 245.209 172.864 254.865 184.775 254.865Z" fill="url(#paint5_linear_123_2)"/>
</g>
<path d="M420.059 201.812C417.148 179.923 409.707 163.695 396.768 150.755C383.828 137.816 367.6 130.429 345.711 127.464C337.947 126.44 328.027 125.901 321.449 125.685L289.208 93.444C278.587 82.8228 264.515 77 249.527 77C234.539 77 220.413 82.8228 209.792 93.444L177.551 125.685C170.865 125.901 161.053 126.44 153.289 127.464C131.454 130.429 115.226 137.816 102.232 150.755C89.2925 163.695 81.8523 179.923 78.9409 201.812C77 216.423 77 233.568 77 253.463V294.06C77 313.901 77 331.1 78.9409 345.711C81.9062 367.6 89.2925 383.828 102.232 396.768C115.172 409.707 131.4 417.094 153.289 420.059C167.9 422 185.045 422 204.94 422H294.06C313.955 422 331.1 422 345.711 420.059C367.546 417.094 383.774 409.707 396.768 396.768C409.707 383.828 417.148 367.6 420.059 345.711C422 331.1 422 313.955 422 294.06V253.463C422 233.568 422 216.423 420.059 201.812ZM378.868 294.06C378.868 312.391 378.868 328.188 377.305 339.942C375.202 355.469 370.565 361.939 366.252 366.252C361.939 370.565 355.469 375.202 339.942 377.305C328.188 378.868 312.338 378.868 294.007 378.868H204.886C186.555 378.868 170.704 378.868 159.004 377.305C143.477 375.202 137.007 370.512 132.694 366.252C128.381 361.993 123.744 355.469 121.641 339.942C120.078 328.188 120.078 312.338 120.078 294.06V253.463C120.078 235.132 120.078 219.335 121.641 207.527C123.744 192 128.381 185.53 132.694 181.217C137.007 176.904 143.477 172.267 159.004 170.165C165.959 169.248 176.85 168.763 184.775 168.601C194.264 168.601 200.087 164.072 205.047 159.112L240.254 123.852C242.734 121.372 245.915 120.024 249.473 120.024C253.031 120.024 256.158 121.318 258.692 123.852L293.953 159.112C298.859 164.018 304.736 168.601 314.225 168.601C322.096 168.763 333.041 169.248 339.942 170.165C355.469 172.267 361.939 176.958 366.252 181.217C370.565 185.53 375.202 192 377.305 207.527C378.868 219.281 378.868 235.132 378.868 253.463V294.06Z" fill="url(#paint6_linear_123_2)"/>
<path d="M314.171 292.605H271.039C259.124 292.605 249.473 302.255 249.473 314.171C249.473 326.086 259.124 335.736 271.039 335.736H314.171C326.086 335.736 335.737 326.086 335.737 314.171C335.737 302.255 326.086 292.605 314.171 292.605Z" fill="url(#paint7_linear_123_2)"/>
<path d="M314.171 211.733H271.039C259.124 211.733 249.473 221.384 249.473 233.299C249.473 245.214 259.124 254.865 271.039 254.865H314.171C326.086 254.865 335.737 245.214 335.737 233.299C335.737 221.384 326.086 211.733 314.171 211.733Z" fill="url(#paint8_linear_123_2)"/>
<path d="M184.775 335.736C196.685 335.736 206.341 326.081 206.341 314.171C206.341 302.26 196.685 292.605 184.775 292.605C172.864 292.605 163.209 302.26 163.209 314.171C163.209 326.081 172.864 335.736 184.775 335.736Z" fill="url(#paint9_linear_123_2)"/>
<path d="M184.775 254.865C196.685 254.865 206.341 245.209 206.341 233.299C206.341 221.388 196.685 211.733 184.775 211.733C172.864 211.733 163.209 221.388 163.209 233.299C163.209 245.209 172.864 254.865 184.775 254.865Z" fill="url(#paint10_linear_123_2)"/>
<defs>
<filter id="filter0_f_123_2" x="67" y="67" width="365" height="365" filterUnits="userSpaceOnUse" color-interpolation-filters="sRGB">
<feFlood flood-opacity="0" result="BackgroundImageFix"/>
<feBlend mode="normal" in="SourceGraphic" in2="BackgroundImageFix" result="shape"/>
<feGaussianBlur stdDeviation="5" result="effect1_foregroundBlur_123_2"/>
</filter>
<linearGradient id="paint0_linear_123_2" x1="50" y1="455" x2="458" y2="54" gradientUnits="userSpaceOnUse">
<stop offset="0.5" stop-color="#222222"/>
<stop offset="1" stop-color="#414141"/>
</linearGradient>
<linearGradient id="paint1_linear_123_2" x1="92.5" y1="105" x2="391.5" y2="407.5" gradientUnits="userSpaceOnUse">
<stop stop-color="#FFFEF9"/>
<stop offset="1" stop-color="#F8FFD4"/>
</linearGradient>
<linearGradient id="paint2_linear_123_2" x1="253.349" y1="296.105" x2="283.046" y2="356.195" gradientUnits="userSpaceOnUse">
<stop stop-color="#FFFEF9"/>
<stop offset="1" stop-color="#F8FFD4"/>
</linearGradient>
<linearGradient id="paint3_linear_123_2" x1="253.349" y1="215.233" x2="283.046" y2="275.323" gradientUnits="userSpaceOnUse">
<stop stop-color="#FFFEF9"/>
<stop offset="1" stop-color="#F8FFD4"/>
</linearGradient>
<linearGradient id="paint4_linear_123_2" x1="165.147" y1="296.105" x2="202.528" y2="333.924" gradientUnits="userSpaceOnUse">
<stop stop-color="#FFFEF9"/>
<stop offset="1" stop-color="#F8FFD4"/>
</linearGradient>
<linearGradient id="paint5_linear_123_2" x1="165.147" y1="215.233" x2="202.528" y2="253.052" gradientUnits="userSpaceOnUse">
<stop stop-color="#FFFEF9"/>
<stop offset="1" stop-color="#F8FFD4"/>
</linearGradient>
<linearGradient id="paint6_linear_123_2" x1="92.5" y1="105" x2="391.5" y2="407.5" gradientUnits="userSpaceOnUse">
<stop stop-color="#FFFEF9"/>
<stop offset="1" stop-color="#F8FFD4"/>
</linearGradient>
<linearGradient id="paint7_linear_123_2" x1="253.349" y1="296.105" x2="283.046" y2="356.195" gradientUnits="userSpaceOnUse">
<stop stop-color="#FFFEF9"/>
<stop offset="1" stop-color="#F8FFD4"/>
</linearGradient>
<linearGradient id="paint8_linear_123_2" x1="253.349" y1="215.233" x2="283.046" y2="275.323" gradientUnits="userSpaceOnUse">
<stop stop-color="#FFFEF9"/>
<stop offset="1" stop-color="#F8FFD4"/>
</linearGradient>
<linearGradient id="paint9_linear_123_2" x1="165.147" y1="296.105" x2="202.528" y2="333.924" gradientUnits="userSpaceOnUse">
<stop stop-color="#FFFEF9"/>
<stop offset="1" stop-color="#F8FFD4"/>
</linearGradient>
<linearGradient id="paint10_linear_123_2" x1="165.147" y1="215.233" x2="202.528" y2="253.052" gradientUnits="userSpaceOnUse">
<stop stop-color="#FFFEF9"/>
<stop offset="1" stop-color="#F8FFD4"/>
</linearGradient>
</defs>
</svg>
